<svg xmlns="http://www.w3.org/2000/svg" viewBox="0 0 64 64">
  <defs>
    <linearGradient id="g" x1="8" y1="8" x2="56" y2="56" gradientUnits="userSpaceOnUse">
      <stop offset="0" stop-color="#00e5ff"/>
      <stop offset="0.52" stop-color="#00a1d6"/>
      <stop offset="1" stop-color="#fb7299"/>
    </linearGradient>
    <filter id="s" x="-30%" y="-30%" width="160%" height="160%">
      <feDropShadow dx="0" dy="4" stdDeviation="5" flood-color="#00e5ff" flood-opacity="0.35"/>
    </filter>
  </defs>
  <rect width="64" height="64" rx="18" fill="#0d0f14"/>
  <rect x="4" y="4" width="56" height="56" rx="15" fill="url(#g)" opacity="0.16"/>
  <path d="M26.2 38.6c0-4.8 2.5-7 6.1-9.1 2.8-1.7 4.4-3.1 4.4-5.6 0-2.8-2.1-4.7-5.4-4.7-3.1 0-5.4 1.5-7.8 4.2l-6.2-5.8C20.8 13 25.5 10.2 32 10.2c8.7 0 14.6 5.1 14.6 12.9 0 6.4-3.7 9.5-7.9 12-3.1 1.9-4.4 3.1-4.4 6v1.3h-8.1v-3.8Zm-.9 12.4c0-3.3 2.6-5.8 6.1-5.8s6.1 2.5 6.1 5.8-2.6 5.8-6.1 5.8-6.1-2.5-6.1-5.8Z" fill="url(#g)" filter="url(#s)"/>
</svg>
